<mxfile host="app.diagrams.net" agent="Mozilla/5.0 (Windows NT 10.0; Win64; x64) AppleWebKit/537.36 (KHTML, like Gecko) Chrome/139.0.0.0 Safari/537.36" version="28.1.1">
  <diagram name="페이지-1" id="vWVoJDtwX-F9cPXq4eOB">
    <mxGraphModel dx="2129" dy="2240" grid="1" gridSize="10" guides="1" tooltips="1" connect="1" arrows="1" fold="1" page="1" pageScale="1" pageWidth="827" pageHeight="1169" math="0" shadow="0">
      <root>
        <mxCell id="0" />
        <mxCell id="1" parent="0" />
        <mxCell id="KuGaXg8JcHQKKmfSfJ2u-14" value="id" style="ellipse;whiteSpace=wrap;html=1;align=center;fontStyle=4;" vertex="1" parent="1">
          <mxGeometry x="250" y="125" width="100" height="40" as="geometry" />
        </mxCell>
        <mxCell id="KuGaXg8JcHQKKmfSfJ2u-15" value="name" style="ellipse;whiteSpace=wrap;html=1;align=center;" vertex="1" parent="1">
          <mxGeometry x="360" y="125" width="100" height="40" as="geometry" />
        </mxCell>
        <mxCell id="KuGaXg8JcHQKKmfSfJ2u-16" value="password" style="ellipse;whiteSpace=wrap;html=1;align=center;" vertex="1" parent="1">
          <mxGeometry x="690" y="125" width="100" height="40" as="geometry" />
        </mxCell>
        <mxCell id="KuGaXg8JcHQKKmfSfJ2u-17" value="email" style="ellipse;whiteSpace=wrap;html=1;align=center;" vertex="1" parent="1">
          <mxGeometry x="580" y="125" width="100" height="40" as="geometry" />
        </mxCell>
        <mxCell id="KuGaXg8JcHQKKmfSfJ2u-18" value="age" style="ellipse;whiteSpace=wrap;html=1;align=center;" vertex="1" parent="1">
          <mxGeometry x="473.5" y="125" width="100" height="40" as="geometry" />
        </mxCell>
        <mxCell id="KuGaXg8JcHQKKmfSfJ2u-19" value="users" style="whiteSpace=wrap;html=1;align=center;" vertex="1" parent="1">
          <mxGeometry x="474" y="55" width="100" height="40" as="geometry" />
        </mxCell>
        <mxCell id="KuGaXg8JcHQKKmfSfJ2u-24" value="" style="endArrow=none;html=1;rounded=0;entryX=0.5;entryY=1;entryDx=0;entryDy=0;exitX=0.5;exitY=0;exitDx=0;exitDy=0;" edge="1" parent="1" source="KuGaXg8JcHQKKmfSfJ2u-14" target="KuGaXg8JcHQKKmfSfJ2u-19">
          <mxGeometry relative="1" as="geometry">
            <mxPoint x="300" y="123.45999999999998" as="sourcePoint" />
            <mxPoint x="460" y="123.45999999999998" as="targetPoint" />
          </mxGeometry>
        </mxCell>
        <mxCell id="KuGaXg8JcHQKKmfSfJ2u-25" value="" style="endArrow=none;html=1;rounded=0;exitX=0.5;exitY=0;exitDx=0;exitDy=0;" edge="1" parent="1" source="KuGaXg8JcHQKKmfSfJ2u-15">
          <mxGeometry relative="1" as="geometry">
            <mxPoint x="310" y="135" as="sourcePoint" />
            <mxPoint x="520" y="95" as="targetPoint" />
          </mxGeometry>
        </mxCell>
        <mxCell id="KuGaXg8JcHQKKmfSfJ2u-26" value="" style="endArrow=none;html=1;rounded=0;exitX=0.5;exitY=0;exitDx=0;exitDy=0;entryX=0.5;entryY=1;entryDx=0;entryDy=0;" edge="1" parent="1" source="KuGaXg8JcHQKKmfSfJ2u-18" target="KuGaXg8JcHQKKmfSfJ2u-19">
          <mxGeometry relative="1" as="geometry">
            <mxPoint x="420" y="135" as="sourcePoint" />
            <mxPoint x="530" y="105" as="targetPoint" />
          </mxGeometry>
        </mxCell>
        <mxCell id="KuGaXg8JcHQKKmfSfJ2u-27" value="" style="endArrow=none;html=1;rounded=0;exitX=0.5;exitY=0;exitDx=0;exitDy=0;entryX=0.5;entryY=1;entryDx=0;entryDy=0;" edge="1" parent="1" source="KuGaXg8JcHQKKmfSfJ2u-17" target="KuGaXg8JcHQKKmfSfJ2u-19">
          <mxGeometry relative="1" as="geometry">
            <mxPoint x="534" y="135" as="sourcePoint" />
            <mxPoint x="534" y="105" as="targetPoint" />
          </mxGeometry>
        </mxCell>
        <mxCell id="KuGaXg8JcHQKKmfSfJ2u-28" value="" style="endArrow=none;html=1;rounded=0;exitX=0.5;exitY=0;exitDx=0;exitDy=0;entryX=0.5;entryY=1;entryDx=0;entryDy=0;" edge="1" parent="1" source="KuGaXg8JcHQKKmfSfJ2u-16" target="KuGaXg8JcHQKKmfSfJ2u-19">
          <mxGeometry relative="1" as="geometry">
            <mxPoint x="640" y="135" as="sourcePoint" />
            <mxPoint x="530" y="115" as="targetPoint" />
          </mxGeometry>
        </mxCell>
        <mxCell id="KuGaXg8JcHQKKmfSfJ2u-29" value="users" style="shape=table;startSize=30;container=1;collapsible=1;childLayout=tableLayout;fixedRows=1;rowLines=0;fontStyle=1;align=center;resizeLast=1;html=1;" vertex="1" parent="1">
          <mxGeometry x="50" y="30" width="180" height="180" as="geometry" />
        </mxCell>
        <mxCell id="KuGaXg8JcHQKKmfSfJ2u-30" value="" style="shape=tableRow;horizontal=0;startSize=0;swimlaneHead=0;swimlaneBody=0;fillColor=none;collapsible=0;dropTarget=0;points=[[0,0.5],[1,0.5]];portConstraint=eastwest;top=0;left=0;right=0;bottom=1;" vertex="1" parent="KuGaXg8JcHQKKmfSfJ2u-29">
          <mxGeometry y="30" width="180" height="30" as="geometry" />
        </mxCell>
        <mxCell id="KuGaXg8JcHQKKmfSfJ2u-31" value="PK" style="shape=partialRectangle;connectable=0;fillColor=none;top=0;left=0;bottom=0;right=0;fontStyle=1;overflow=hidden;whiteSpace=wrap;html=1;" vertex="1" parent="KuGaXg8JcHQKKmfSfJ2u-30">
          <mxGeometry width="30" height="30" as="geometry">
            <mxRectangle width="30" height="30" as="alternateBounds" />
          </mxGeometry>
        </mxCell>
        <mxCell id="KuGaXg8JcHQKKmfSfJ2u-32" value="id" style="shape=partialRectangle;connectable=0;fillColor=none;top=0;left=0;bottom=0;right=0;align=left;spacingLeft=6;fontStyle=5;overflow=hidden;whiteSpace=wrap;html=1;" vertex="1" parent="KuGaXg8JcHQKKmfSfJ2u-30">
          <mxGeometry x="30" width="150" height="30" as="geometry">
            <mxRectangle width="150" height="30" as="alternateBounds" />
          </mxGeometry>
        </mxCell>
        <mxCell id="KuGaXg8JcHQKKmfSfJ2u-33" value="" style="shape=tableRow;horizontal=0;startSize=0;swimlaneHead=0;swimlaneBody=0;fillColor=none;collapsible=0;dropTarget=0;points=[[0,0.5],[1,0.5]];portConstraint=eastwest;top=0;left=0;right=0;bottom=0;" vertex="1" parent="KuGaXg8JcHQKKmfSfJ2u-29">
          <mxGeometry y="60" width="180" height="30" as="geometry" />
        </mxCell>
        <mxCell id="KuGaXg8JcHQKKmfSfJ2u-34" value="" style="shape=partialRectangle;connectable=0;fillColor=none;top=0;left=0;bottom=0;right=0;editable=1;overflow=hidden;whiteSpace=wrap;html=1;" vertex="1" parent="KuGaXg8JcHQKKmfSfJ2u-33">
          <mxGeometry width="30" height="30" as="geometry">
            <mxRectangle width="30" height="30" as="alternateBounds" />
          </mxGeometry>
        </mxCell>
        <mxCell id="KuGaXg8JcHQKKmfSfJ2u-35" value="name" style="shape=partialRectangle;connectable=0;fillColor=none;top=0;left=0;bottom=0;right=0;align=left;spacingLeft=6;overflow=hidden;whiteSpace=wrap;html=1;" vertex="1" parent="KuGaXg8JcHQKKmfSfJ2u-33">
          <mxGeometry x="30" width="150" height="30" as="geometry">
            <mxRectangle width="150" height="30" as="alternateBounds" />
          </mxGeometry>
        </mxCell>
        <mxCell id="KuGaXg8JcHQKKmfSfJ2u-36" value="" style="shape=tableRow;horizontal=0;startSize=0;swimlaneHead=0;swimlaneBody=0;fillColor=none;collapsible=0;dropTarget=0;points=[[0,0.5],[1,0.5]];portConstraint=eastwest;top=0;left=0;right=0;bottom=0;" vertex="1" parent="KuGaXg8JcHQKKmfSfJ2u-29">
          <mxGeometry y="90" width="180" height="30" as="geometry" />
        </mxCell>
        <mxCell id="KuGaXg8JcHQKKmfSfJ2u-37" value="" style="shape=partialRectangle;connectable=0;fillColor=none;top=0;left=0;bottom=0;right=0;editable=1;overflow=hidden;whiteSpace=wrap;html=1;" vertex="1" parent="KuGaXg8JcHQKKmfSfJ2u-36">
          <mxGeometry width="30" height="30" as="geometry">
            <mxRectangle width="30" height="30" as="alternateBounds" />
          </mxGeometry>
        </mxCell>
        <mxCell id="KuGaXg8JcHQKKmfSfJ2u-38" value="age" style="shape=partialRectangle;connectable=0;fillColor=none;top=0;left=0;bottom=0;right=0;align=left;spacingLeft=6;overflow=hidden;whiteSpace=wrap;html=1;" vertex="1" parent="KuGaXg8JcHQKKmfSfJ2u-36">
          <mxGeometry x="30" width="150" height="30" as="geometry">
            <mxRectangle width="150" height="30" as="alternateBounds" />
          </mxGeometry>
        </mxCell>
        <mxCell id="KuGaXg8JcHQKKmfSfJ2u-42" value="" style="shape=tableRow;horizontal=0;startSize=0;swimlaneHead=0;swimlaneBody=0;fillColor=none;collapsible=0;dropTarget=0;points=[[0,0.5],[1,0.5]];portConstraint=eastwest;top=0;left=0;right=0;bottom=0;" vertex="1" parent="KuGaXg8JcHQKKmfSfJ2u-29">
          <mxGeometry y="120" width="180" height="30" as="geometry" />
        </mxCell>
        <mxCell id="KuGaXg8JcHQKKmfSfJ2u-43" value="" style="shape=partialRectangle;connectable=0;fillColor=none;top=0;left=0;bottom=0;right=0;editable=1;overflow=hidden;whiteSpace=wrap;html=1;" vertex="1" parent="KuGaXg8JcHQKKmfSfJ2u-42">
          <mxGeometry width="30" height="30" as="geometry">
            <mxRectangle width="30" height="30" as="alternateBounds" />
          </mxGeometry>
        </mxCell>
        <mxCell id="KuGaXg8JcHQKKmfSfJ2u-44" value="email" style="shape=partialRectangle;connectable=0;fillColor=none;top=0;left=0;bottom=0;right=0;align=left;spacingLeft=6;overflow=hidden;whiteSpace=wrap;html=1;" vertex="1" parent="KuGaXg8JcHQKKmfSfJ2u-42">
          <mxGeometry x="30" width="150" height="30" as="geometry">
            <mxRectangle width="150" height="30" as="alternateBounds" />
          </mxGeometry>
        </mxCell>
        <mxCell id="KuGaXg8JcHQKKmfSfJ2u-39" value="" style="shape=tableRow;horizontal=0;startSize=0;swimlaneHead=0;swimlaneBody=0;fillColor=none;collapsible=0;dropTarget=0;points=[[0,0.5],[1,0.5]];portConstraint=eastwest;top=0;left=0;right=0;bottom=0;" vertex="1" parent="KuGaXg8JcHQKKmfSfJ2u-29">
          <mxGeometry y="150" width="180" height="30" as="geometry" />
        </mxCell>
        <mxCell id="KuGaXg8JcHQKKmfSfJ2u-40" value="" style="shape=partialRectangle;connectable=0;fillColor=none;top=0;left=0;bottom=0;right=0;editable=1;overflow=hidden;whiteSpace=wrap;html=1;" vertex="1" parent="KuGaXg8JcHQKKmfSfJ2u-39">
          <mxGeometry width="30" height="30" as="geometry">
            <mxRectangle width="30" height="30" as="alternateBounds" />
          </mxGeometry>
        </mxCell>
        <mxCell id="KuGaXg8JcHQKKmfSfJ2u-41" value="password" style="shape=partialRectangle;connectable=0;fillColor=none;top=0;left=0;bottom=0;right=0;align=left;spacingLeft=6;overflow=hidden;whiteSpace=wrap;html=1;" vertex="1" parent="KuGaXg8JcHQKKmfSfJ2u-39">
          <mxGeometry x="30" width="150" height="30" as="geometry">
            <mxRectangle width="150" height="30" as="alternateBounds" />
          </mxGeometry>
        </mxCell>
        <mxCell id="KuGaXg8JcHQKKmfSfJ2u-51" value="posts" style="whiteSpace=wrap;html=1;align=center;" vertex="1" parent="1">
          <mxGeometry x="473.5" y="340" width="100" height="40" as="geometry" />
        </mxCell>
        <mxCell id="KuGaXg8JcHQKKmfSfJ2u-52" value="id" style="ellipse;whiteSpace=wrap;html=1;align=center;fontStyle=4;" vertex="1" parent="1">
          <mxGeometry x="250" y="410" width="100" height="40" as="geometry" />
        </mxCell>
        <mxCell id="KuGaXg8JcHQKKmfSfJ2u-55" value="view" style="ellipse;whiteSpace=wrap;html=1;align=center;" vertex="1" parent="1">
          <mxGeometry x="300" y="460" width="100" height="40" as="geometry" />
        </mxCell>
        <mxCell id="KuGaXg8JcHQKKmfSfJ2u-56" value="createat" style="ellipse;whiteSpace=wrap;html=1;align=center;" vertex="1" parent="1">
          <mxGeometry x="690" y="410" width="100" height="40" as="geometry" />
        </mxCell>
        <mxCell id="KuGaXg8JcHQKKmfSfJ2u-57" value="category" style="ellipse;whiteSpace=wrap;html=1;align=center;" vertex="1" parent="1">
          <mxGeometry x="580" y="410" width="100" height="40" as="geometry" />
        </mxCell>
        <mxCell id="KuGaXg8JcHQKKmfSfJ2u-58" value="contents" style="ellipse;whiteSpace=wrap;html=1;align=center;" vertex="1" parent="1">
          <mxGeometry x="474" y="410" width="100" height="40" as="geometry" />
        </mxCell>
        <mxCell id="KuGaXg8JcHQKKmfSfJ2u-59" value="title" style="ellipse;whiteSpace=wrap;html=1;align=center;" vertex="1" parent="1">
          <mxGeometry x="363" y="410" width="100" height="40" as="geometry" />
        </mxCell>
        <mxCell id="KuGaXg8JcHQKKmfSfJ2u-63" value="categories_id(FK)" style="ellipse;whiteSpace=wrap;html=1;align=center;" vertex="1" parent="1">
          <mxGeometry x="530" y="460" width="100" height="40" as="geometry" />
        </mxCell>
        <mxCell id="KuGaXg8JcHQKKmfSfJ2u-64" value="users_id(FK)" style="ellipse;whiteSpace=wrap;html=1;align=center;" vertex="1" parent="1">
          <mxGeometry x="420" y="460" width="100" height="40" as="geometry" />
        </mxCell>
        <mxCell id="KuGaXg8JcHQKKmfSfJ2u-67" value="posts" style="shape=table;startSize=30;container=1;collapsible=1;childLayout=tableLayout;fixedRows=1;rowLines=0;fontStyle=1;align=center;resizeLast=1;html=1;" vertex="1" parent="1">
          <mxGeometry x="50" y="295" width="180" height="270" as="geometry" />
        </mxCell>
        <mxCell id="KuGaXg8JcHQKKmfSfJ2u-151" value="" style="shape=tableRow;horizontal=0;startSize=0;swimlaneHead=0;swimlaneBody=0;fillColor=none;collapsible=0;dropTarget=0;points=[[0,0.5],[1,0.5]];portConstraint=eastwest;top=0;left=0;right=0;bottom=1;" vertex="1" parent="KuGaXg8JcHQKKmfSfJ2u-67">
          <mxGeometry y="30" width="180" height="30" as="geometry" />
        </mxCell>
        <mxCell id="KuGaXg8JcHQKKmfSfJ2u-152" value="PK" style="shape=partialRectangle;connectable=0;fillColor=none;top=0;left=0;bottom=0;right=0;fontStyle=1;overflow=hidden;whiteSpace=wrap;html=1;" vertex="1" parent="KuGaXg8JcHQKKmfSfJ2u-151">
          <mxGeometry width="30" height="30" as="geometry">
            <mxRectangle width="30" height="30" as="alternateBounds" />
          </mxGeometry>
        </mxCell>
        <mxCell id="KuGaXg8JcHQKKmfSfJ2u-153" value="id" style="shape=partialRectangle;connectable=0;fillColor=none;top=0;left=0;bottom=0;right=0;align=left;spacingLeft=6;fontStyle=5;overflow=hidden;whiteSpace=wrap;html=1;" vertex="1" parent="KuGaXg8JcHQKKmfSfJ2u-151">
          <mxGeometry x="30" width="150" height="30" as="geometry">
            <mxRectangle width="150" height="30" as="alternateBounds" />
          </mxGeometry>
        </mxCell>
        <mxCell id="KuGaXg8JcHQKKmfSfJ2u-154" value="" style="shape=tableRow;horizontal=0;startSize=0;swimlaneHead=0;swimlaneBody=0;fillColor=none;collapsible=0;dropTarget=0;points=[[0,0.5],[1,0.5]];portConstraint=eastwest;top=0;left=0;right=0;bottom=1;" vertex="1" parent="KuGaXg8JcHQKKmfSfJ2u-67">
          <mxGeometry y="60" width="180" height="30" as="geometry" />
        </mxCell>
        <mxCell id="KuGaXg8JcHQKKmfSfJ2u-155" value="FK" style="shape=partialRectangle;connectable=0;fillColor=none;top=0;left=0;bottom=0;right=0;fontStyle=1;overflow=hidden;whiteSpace=wrap;html=1;" vertex="1" parent="KuGaXg8JcHQKKmfSfJ2u-154">
          <mxGeometry width="30" height="30" as="geometry">
            <mxRectangle width="30" height="30" as="alternateBounds" />
          </mxGeometry>
        </mxCell>
        <mxCell id="KuGaXg8JcHQKKmfSfJ2u-156" value="&lt;span style=&quot;font-weight: 400;&quot;&gt;users_id(FK)&lt;/span&gt;" style="shape=partialRectangle;connectable=0;fillColor=none;top=0;left=0;bottom=0;right=0;align=left;spacingLeft=6;fontStyle=5;overflow=hidden;whiteSpace=wrap;html=1;" vertex="1" parent="KuGaXg8JcHQKKmfSfJ2u-154">
          <mxGeometry x="30" width="150" height="30" as="geometry">
            <mxRectangle width="150" height="30" as="alternateBounds" />
          </mxGeometry>
        </mxCell>
        <mxCell id="KuGaXg8JcHQKKmfSfJ2u-68" value="" style="shape=tableRow;horizontal=0;startSize=0;swimlaneHead=0;swimlaneBody=0;fillColor=none;collapsible=0;dropTarget=0;points=[[0,0.5],[1,0.5]];portConstraint=eastwest;top=0;left=0;right=0;bottom=1;" vertex="1" parent="KuGaXg8JcHQKKmfSfJ2u-67">
          <mxGeometry y="90" width="180" height="30" as="geometry" />
        </mxCell>
        <mxCell id="KuGaXg8JcHQKKmfSfJ2u-69" value="FK" style="shape=partialRectangle;connectable=0;fillColor=none;top=0;left=0;bottom=0;right=0;fontStyle=1;overflow=hidden;whiteSpace=wrap;html=1;" vertex="1" parent="KuGaXg8JcHQKKmfSfJ2u-68">
          <mxGeometry width="30" height="30" as="geometry">
            <mxRectangle width="30" height="30" as="alternateBounds" />
          </mxGeometry>
        </mxCell>
        <mxCell id="KuGaXg8JcHQKKmfSfJ2u-70" value="&lt;span style=&quot;font-weight: 400;&quot;&gt;categoies_id(FK)&lt;/span&gt;" style="shape=partialRectangle;connectable=0;fillColor=none;top=0;left=0;bottom=0;right=0;align=left;spacingLeft=6;fontStyle=5;overflow=hidden;whiteSpace=wrap;html=1;" vertex="1" parent="KuGaXg8JcHQKKmfSfJ2u-68">
          <mxGeometry x="30" width="150" height="30" as="geometry">
            <mxRectangle width="150" height="30" as="alternateBounds" />
          </mxGeometry>
        </mxCell>
        <mxCell id="KuGaXg8JcHQKKmfSfJ2u-71" value="" style="shape=tableRow;horizontal=0;startSize=0;swimlaneHead=0;swimlaneBody=0;fillColor=none;collapsible=0;dropTarget=0;points=[[0,0.5],[1,0.5]];portConstraint=eastwest;top=0;left=0;right=0;bottom=0;" vertex="1" parent="KuGaXg8JcHQKKmfSfJ2u-67">
          <mxGeometry y="120" width="180" height="30" as="geometry" />
        </mxCell>
        <mxCell id="KuGaXg8JcHQKKmfSfJ2u-72" value="" style="shape=partialRectangle;connectable=0;fillColor=none;top=0;left=0;bottom=0;right=0;editable=1;overflow=hidden;whiteSpace=wrap;html=1;" vertex="1" parent="KuGaXg8JcHQKKmfSfJ2u-71">
          <mxGeometry width="30" height="30" as="geometry">
            <mxRectangle width="30" height="30" as="alternateBounds" />
          </mxGeometry>
        </mxCell>
        <mxCell id="KuGaXg8JcHQKKmfSfJ2u-73" value="title" style="shape=partialRectangle;connectable=0;fillColor=none;top=0;left=0;bottom=0;right=0;align=left;spacingLeft=6;overflow=hidden;whiteSpace=wrap;html=1;" vertex="1" parent="KuGaXg8JcHQKKmfSfJ2u-71">
          <mxGeometry x="30" width="150" height="30" as="geometry">
            <mxRectangle width="150" height="30" as="alternateBounds" />
          </mxGeometry>
        </mxCell>
        <mxCell id="KuGaXg8JcHQKKmfSfJ2u-74" value="" style="shape=tableRow;horizontal=0;startSize=0;swimlaneHead=0;swimlaneBody=0;fillColor=none;collapsible=0;dropTarget=0;points=[[0,0.5],[1,0.5]];portConstraint=eastwest;top=0;left=0;right=0;bottom=0;" vertex="1" parent="KuGaXg8JcHQKKmfSfJ2u-67">
          <mxGeometry y="150" width="180" height="30" as="geometry" />
        </mxCell>
        <mxCell id="KuGaXg8JcHQKKmfSfJ2u-75" value="" style="shape=partialRectangle;connectable=0;fillColor=none;top=0;left=0;bottom=0;right=0;editable=1;overflow=hidden;whiteSpace=wrap;html=1;" vertex="1" parent="KuGaXg8JcHQKKmfSfJ2u-74">
          <mxGeometry width="30" height="30" as="geometry">
            <mxRectangle width="30" height="30" as="alternateBounds" />
          </mxGeometry>
        </mxCell>
        <mxCell id="KuGaXg8JcHQKKmfSfJ2u-76" value="contents" style="shape=partialRectangle;connectable=0;fillColor=none;top=0;left=0;bottom=0;right=0;align=left;spacingLeft=6;overflow=hidden;whiteSpace=wrap;html=1;" vertex="1" parent="KuGaXg8JcHQKKmfSfJ2u-74">
          <mxGeometry x="30" width="150" height="30" as="geometry">
            <mxRectangle width="150" height="30" as="alternateBounds" />
          </mxGeometry>
        </mxCell>
        <mxCell id="KuGaXg8JcHQKKmfSfJ2u-77" value="" style="shape=tableRow;horizontal=0;startSize=0;swimlaneHead=0;swimlaneBody=0;fillColor=none;collapsible=0;dropTarget=0;points=[[0,0.5],[1,0.5]];portConstraint=eastwest;top=0;left=0;right=0;bottom=0;" vertex="1" parent="KuGaXg8JcHQKKmfSfJ2u-67">
          <mxGeometry y="180" width="180" height="30" as="geometry" />
        </mxCell>
        <mxCell id="KuGaXg8JcHQKKmfSfJ2u-78" value="" style="shape=partialRectangle;connectable=0;fillColor=none;top=0;left=0;bottom=0;right=0;editable=1;overflow=hidden;whiteSpace=wrap;html=1;" vertex="1" parent="KuGaXg8JcHQKKmfSfJ2u-77">
          <mxGeometry width="30" height="30" as="geometry">
            <mxRectangle width="30" height="30" as="alternateBounds" />
          </mxGeometry>
        </mxCell>
        <mxCell id="KuGaXg8JcHQKKmfSfJ2u-79" value="category" style="shape=partialRectangle;connectable=0;fillColor=none;top=0;left=0;bottom=0;right=0;align=left;spacingLeft=6;overflow=hidden;whiteSpace=wrap;html=1;" vertex="1" parent="KuGaXg8JcHQKKmfSfJ2u-77">
          <mxGeometry x="30" width="150" height="30" as="geometry">
            <mxRectangle width="150" height="30" as="alternateBounds" />
          </mxGeometry>
        </mxCell>
        <mxCell id="KuGaXg8JcHQKKmfSfJ2u-83" value="" style="shape=tableRow;horizontal=0;startSize=0;swimlaneHead=0;swimlaneBody=0;fillColor=none;collapsible=0;dropTarget=0;points=[[0,0.5],[1,0.5]];portConstraint=eastwest;top=0;left=0;right=0;bottom=0;" vertex="1" parent="KuGaXg8JcHQKKmfSfJ2u-67">
          <mxGeometry y="210" width="180" height="30" as="geometry" />
        </mxCell>
        <mxCell id="KuGaXg8JcHQKKmfSfJ2u-84" value="" style="shape=partialRectangle;connectable=0;fillColor=none;top=0;left=0;bottom=0;right=0;editable=1;overflow=hidden;whiteSpace=wrap;html=1;" vertex="1" parent="KuGaXg8JcHQKKmfSfJ2u-83">
          <mxGeometry width="30" height="30" as="geometry">
            <mxRectangle width="30" height="30" as="alternateBounds" />
          </mxGeometry>
        </mxCell>
        <mxCell id="KuGaXg8JcHQKKmfSfJ2u-85" value="createat" style="shape=partialRectangle;connectable=0;fillColor=none;top=0;left=0;bottom=0;right=0;align=left;spacingLeft=6;overflow=hidden;whiteSpace=wrap;html=1;" vertex="1" parent="KuGaXg8JcHQKKmfSfJ2u-83">
          <mxGeometry x="30" width="150" height="30" as="geometry">
            <mxRectangle width="150" height="30" as="alternateBounds" />
          </mxGeometry>
        </mxCell>
        <mxCell id="KuGaXg8JcHQKKmfSfJ2u-86" value="" style="shape=tableRow;horizontal=0;startSize=0;swimlaneHead=0;swimlaneBody=0;fillColor=none;collapsible=0;dropTarget=0;points=[[0,0.5],[1,0.5]];portConstraint=eastwest;top=0;left=0;right=0;bottom=0;" vertex="1" parent="KuGaXg8JcHQKKmfSfJ2u-67">
          <mxGeometry y="240" width="180" height="30" as="geometry" />
        </mxCell>
        <mxCell id="KuGaXg8JcHQKKmfSfJ2u-87" value="" style="shape=partialRectangle;connectable=0;fillColor=none;top=0;left=0;bottom=0;right=0;editable=1;overflow=hidden;whiteSpace=wrap;html=1;" vertex="1" parent="KuGaXg8JcHQKKmfSfJ2u-86">
          <mxGeometry width="30" height="30" as="geometry">
            <mxRectangle width="30" height="30" as="alternateBounds" />
          </mxGeometry>
        </mxCell>
        <mxCell id="KuGaXg8JcHQKKmfSfJ2u-88" value="view" style="shape=partialRectangle;connectable=0;fillColor=none;top=0;left=0;bottom=0;right=0;align=left;spacingLeft=6;overflow=hidden;whiteSpace=wrap;html=1;" vertex="1" parent="KuGaXg8JcHQKKmfSfJ2u-86">
          <mxGeometry x="30" width="150" height="30" as="geometry">
            <mxRectangle width="150" height="30" as="alternateBounds" />
          </mxGeometry>
        </mxCell>
        <mxCell id="KuGaXg8JcHQKKmfSfJ2u-93" value="categories" style="whiteSpace=wrap;html=1;align=center;" vertex="1" parent="1">
          <mxGeometry x="474" y="620" width="100" height="40" as="geometry" />
        </mxCell>
        <mxCell id="KuGaXg8JcHQKKmfSfJ2u-94" value="id" style="ellipse;whiteSpace=wrap;html=1;align=center;fontStyle=4;" vertex="1" parent="1">
          <mxGeometry x="413" y="710" width="100" height="40" as="geometry" />
        </mxCell>
        <mxCell id="KuGaXg8JcHQKKmfSfJ2u-95" value="name" style="ellipse;whiteSpace=wrap;html=1;align=center;" vertex="1" parent="1">
          <mxGeometry x="520" y="710" width="100" height="40" as="geometry" />
        </mxCell>
        <mxCell id="KuGaXg8JcHQKKmfSfJ2u-96" value="categories" style="shape=table;startSize=30;container=1;collapsible=1;childLayout=tableLayout;fixedRows=1;rowLines=0;fontStyle=1;align=center;resizeLast=1;html=1;" vertex="1" parent="1">
          <mxGeometry x="50" y="640" width="180" height="90" as="geometry" />
        </mxCell>
        <mxCell id="KuGaXg8JcHQKKmfSfJ2u-97" value="" style="shape=tableRow;horizontal=0;startSize=0;swimlaneHead=0;swimlaneBody=0;fillColor=none;collapsible=0;dropTarget=0;points=[[0,0.5],[1,0.5]];portConstraint=eastwest;top=0;left=0;right=0;bottom=1;" vertex="1" parent="KuGaXg8JcHQKKmfSfJ2u-96">
          <mxGeometry y="30" width="180" height="30" as="geometry" />
        </mxCell>
        <mxCell id="KuGaXg8JcHQKKmfSfJ2u-98" value="PK" style="shape=partialRectangle;connectable=0;fillColor=none;top=0;left=0;bottom=0;right=0;fontStyle=1;overflow=hidden;whiteSpace=wrap;html=1;" vertex="1" parent="KuGaXg8JcHQKKmfSfJ2u-97">
          <mxGeometry width="30" height="30" as="geometry">
            <mxRectangle width="30" height="30" as="alternateBounds" />
          </mxGeometry>
        </mxCell>
        <mxCell id="KuGaXg8JcHQKKmfSfJ2u-99" value="id" style="shape=partialRectangle;connectable=0;fillColor=none;top=0;left=0;bottom=0;right=0;align=left;spacingLeft=6;fontStyle=5;overflow=hidden;whiteSpace=wrap;html=1;" vertex="1" parent="KuGaXg8JcHQKKmfSfJ2u-97">
          <mxGeometry x="30" width="150" height="30" as="geometry">
            <mxRectangle width="150" height="30" as="alternateBounds" />
          </mxGeometry>
        </mxCell>
        <mxCell id="KuGaXg8JcHQKKmfSfJ2u-100" value="" style="shape=tableRow;horizontal=0;startSize=0;swimlaneHead=0;swimlaneBody=0;fillColor=none;collapsible=0;dropTarget=0;points=[[0,0.5],[1,0.5]];portConstraint=eastwest;top=0;left=0;right=0;bottom=0;" vertex="1" parent="KuGaXg8JcHQKKmfSfJ2u-96">
          <mxGeometry y="60" width="180" height="30" as="geometry" />
        </mxCell>
        <mxCell id="KuGaXg8JcHQKKmfSfJ2u-101" value="" style="shape=partialRectangle;connectable=0;fillColor=none;top=0;left=0;bottom=0;right=0;editable=1;overflow=hidden;whiteSpace=wrap;html=1;" vertex="1" parent="KuGaXg8JcHQKKmfSfJ2u-100">
          <mxGeometry width="30" height="30" as="geometry">
            <mxRectangle width="30" height="30" as="alternateBounds" />
          </mxGeometry>
        </mxCell>
        <mxCell id="KuGaXg8JcHQKKmfSfJ2u-102" value="name" style="shape=partialRectangle;connectable=0;fillColor=none;top=0;left=0;bottom=0;right=0;align=left;spacingLeft=6;overflow=hidden;whiteSpace=wrap;html=1;" vertex="1" parent="KuGaXg8JcHQKKmfSfJ2u-100">
          <mxGeometry x="30" width="150" height="30" as="geometry">
            <mxRectangle width="150" height="30" as="alternateBounds" />
          </mxGeometry>
        </mxCell>
        <mxCell id="KuGaXg8JcHQKKmfSfJ2u-109" value="" style="endArrow=none;html=1;rounded=0;exitX=0.5;exitY=0;exitDx=0;exitDy=0;entryX=0.5;entryY=1;entryDx=0;entryDy=0;" edge="1" parent="1" source="KuGaXg8JcHQKKmfSfJ2u-94" target="KuGaXg8JcHQKKmfSfJ2u-93">
          <mxGeometry relative="1" as="geometry">
            <mxPoint x="460" y="690" as="sourcePoint" />
            <mxPoint x="570" y="660" as="targetPoint" />
          </mxGeometry>
        </mxCell>
        <mxCell id="KuGaXg8JcHQKKmfSfJ2u-110" value="" style="endArrow=none;html=1;rounded=0;exitX=0.602;exitY=0.042;exitDx=0;exitDy=0;entryX=0.5;entryY=1;entryDx=0;entryDy=0;exitPerimeter=0;" edge="1" parent="1" source="KuGaXg8JcHQKKmfSfJ2u-95" target="KuGaXg8JcHQKKmfSfJ2u-93">
          <mxGeometry relative="1" as="geometry">
            <mxPoint x="473" y="720" as="sourcePoint" />
            <mxPoint x="534" y="670" as="targetPoint" />
          </mxGeometry>
        </mxCell>
        <mxCell id="KuGaXg8JcHQKKmfSfJ2u-111" value="view" style="whiteSpace=wrap;html=1;align=center;" vertex="1" parent="1">
          <mxGeometry x="473.5" y="870" width="100" height="40" as="geometry" />
        </mxCell>
        <mxCell id="KuGaXg8JcHQKKmfSfJ2u-112" value="" style="endArrow=none;html=1;rounded=0;exitX=0.5;exitY=0;exitDx=0;exitDy=0;entryX=0.5;entryY=1;entryDx=0;entryDy=0;" edge="1" parent="1" source="KuGaXg8JcHQKKmfSfJ2u-52" target="KuGaXg8JcHQKKmfSfJ2u-51">
          <mxGeometry relative="1" as="geometry">
            <mxPoint x="420" y="135" as="sourcePoint" />
            <mxPoint x="530" y="105" as="targetPoint" />
          </mxGeometry>
        </mxCell>
        <mxCell id="KuGaXg8JcHQKKmfSfJ2u-113" value="" style="endArrow=none;html=1;rounded=0;exitX=0.5;exitY=0;exitDx=0;exitDy=0;entryX=0.5;entryY=1;entryDx=0;entryDy=0;" edge="1" parent="1" source="KuGaXg8JcHQKKmfSfJ2u-59" target="KuGaXg8JcHQKKmfSfJ2u-51">
          <mxGeometry relative="1" as="geometry">
            <mxPoint x="310" y="420" as="sourcePoint" />
            <mxPoint x="533" y="390" as="targetPoint" />
          </mxGeometry>
        </mxCell>
        <mxCell id="KuGaXg8JcHQKKmfSfJ2u-114" value="" style="endArrow=none;html=1;rounded=0;exitX=0.5;exitY=0;exitDx=0;exitDy=0;entryX=0.5;entryY=1;entryDx=0;entryDy=0;" edge="1" parent="1" source="KuGaXg8JcHQKKmfSfJ2u-58" target="KuGaXg8JcHQKKmfSfJ2u-51">
          <mxGeometry relative="1" as="geometry">
            <mxPoint x="423" y="420" as="sourcePoint" />
            <mxPoint x="533" y="390" as="targetPoint" />
          </mxGeometry>
        </mxCell>
        <mxCell id="KuGaXg8JcHQKKmfSfJ2u-115" value="" style="endArrow=none;html=1;rounded=0;exitX=0.5;exitY=0;exitDx=0;exitDy=0;entryX=0.565;entryY=1;entryDx=0;entryDy=0;entryPerimeter=0;" edge="1" parent="1" source="KuGaXg8JcHQKKmfSfJ2u-57" target="KuGaXg8JcHQKKmfSfJ2u-51">
          <mxGeometry relative="1" as="geometry">
            <mxPoint x="534" y="420" as="sourcePoint" />
            <mxPoint x="533" y="390" as="targetPoint" />
          </mxGeometry>
        </mxCell>
        <mxCell id="KuGaXg8JcHQKKmfSfJ2u-116" value="" style="endArrow=none;html=1;rounded=0;exitX=0.5;exitY=0;exitDx=0;exitDy=0;entryX=0.5;entryY=1;entryDx=0;entryDy=0;" edge="1" parent="1" source="KuGaXg8JcHQKKmfSfJ2u-56" target="KuGaXg8JcHQKKmfSfJ2u-51">
          <mxGeometry relative="1" as="geometry">
            <mxPoint x="640" y="420" as="sourcePoint" />
            <mxPoint x="540" y="390" as="targetPoint" />
          </mxGeometry>
        </mxCell>
        <mxCell id="KuGaXg8JcHQKKmfSfJ2u-117" value="" style="endArrow=none;html=1;rounded=0;exitX=0.5;exitY=0;exitDx=0;exitDy=0;entryX=0.5;entryY=1;entryDx=0;entryDy=0;" edge="1" parent="1" source="KuGaXg8JcHQKKmfSfJ2u-55" target="KuGaXg8JcHQKKmfSfJ2u-51">
          <mxGeometry relative="1" as="geometry">
            <mxPoint x="750" y="420" as="sourcePoint" />
            <mxPoint x="533" y="390" as="targetPoint" />
          </mxGeometry>
        </mxCell>
        <mxCell id="KuGaXg8JcHQKKmfSfJ2u-118" value="users_id(FK)" style="ellipse;whiteSpace=wrap;html=1;align=center;" vertex="1" parent="1">
          <mxGeometry x="474" y="950" width="100" height="40" as="geometry" />
        </mxCell>
        <mxCell id="KuGaXg8JcHQKKmfSfJ2u-119" value="posts_id(FK)" style="ellipse;whiteSpace=wrap;html=1;align=center;" vertex="1" parent="1">
          <mxGeometry x="594" y="950" width="100" height="40" as="geometry" />
        </mxCell>
        <mxCell id="KuGaXg8JcHQKKmfSfJ2u-120" value="id" style="ellipse;whiteSpace=wrap;html=1;align=center;fontStyle=4;" vertex="1" parent="1">
          <mxGeometry x="354" y="950" width="100" height="40" as="geometry" />
        </mxCell>
        <mxCell id="KuGaXg8JcHQKKmfSfJ2u-121" value="" style="endArrow=none;html=1;rounded=0;exitX=0.5;exitY=0;exitDx=0;exitDy=0;entryX=0.5;entryY=1;entryDx=0;entryDy=0;" edge="1" parent="1" source="KuGaXg8JcHQKKmfSfJ2u-64" target="KuGaXg8JcHQKKmfSfJ2u-51">
          <mxGeometry relative="1" as="geometry">
            <mxPoint x="360" y="470" as="sourcePoint" />
            <mxPoint x="533" y="390" as="targetPoint" />
          </mxGeometry>
        </mxCell>
        <mxCell id="KuGaXg8JcHQKKmfSfJ2u-122" value="" style="endArrow=none;html=1;rounded=0;exitX=0.5;exitY=0;exitDx=0;exitDy=0;entryX=0.5;entryY=1;entryDx=0;entryDy=0;" edge="1" parent="1" source="KuGaXg8JcHQKKmfSfJ2u-63" target="KuGaXg8JcHQKKmfSfJ2u-51">
          <mxGeometry relative="1" as="geometry">
            <mxPoint x="480" y="470" as="sourcePoint" />
            <mxPoint x="533" y="390" as="targetPoint" />
          </mxGeometry>
        </mxCell>
        <mxCell id="KuGaXg8JcHQKKmfSfJ2u-123" value="" style="endArrow=none;html=1;rounded=0;exitX=0.5;exitY=0;exitDx=0;exitDy=0;entryX=0.5;entryY=1;entryDx=0;entryDy=0;" edge="1" parent="1" source="KuGaXg8JcHQKKmfSfJ2u-120" target="KuGaXg8JcHQKKmfSfJ2u-111">
          <mxGeometry relative="1" as="geometry">
            <mxPoint x="473" y="720" as="sourcePoint" />
            <mxPoint x="534" y="670" as="targetPoint" />
          </mxGeometry>
        </mxCell>
        <mxCell id="KuGaXg8JcHQKKmfSfJ2u-124" value="" style="endArrow=none;html=1;rounded=0;exitX=0.5;exitY=0;exitDx=0;exitDy=0;entryX=0.5;entryY=1;entryDx=0;entryDy=0;" edge="1" parent="1" source="KuGaXg8JcHQKKmfSfJ2u-118" target="KuGaXg8JcHQKKmfSfJ2u-111">
          <mxGeometry relative="1" as="geometry">
            <mxPoint x="414" y="960" as="sourcePoint" />
            <mxPoint x="533" y="920" as="targetPoint" />
          </mxGeometry>
        </mxCell>
        <mxCell id="KuGaXg8JcHQKKmfSfJ2u-125" value="" style="endArrow=none;html=1;rounded=0;exitX=0.5;exitY=0;exitDx=0;exitDy=0;entryX=0.5;entryY=1;entryDx=0;entryDy=0;" edge="1" parent="1" source="KuGaXg8JcHQKKmfSfJ2u-119" target="KuGaXg8JcHQKKmfSfJ2u-111">
          <mxGeometry relative="1" as="geometry">
            <mxPoint x="534" y="960" as="sourcePoint" />
            <mxPoint x="533" y="920" as="targetPoint" />
          </mxGeometry>
        </mxCell>
        <mxCell id="KuGaXg8JcHQKKmfSfJ2u-126" value="view" style="shape=table;startSize=30;container=1;collapsible=1;childLayout=tableLayout;fixedRows=1;rowLines=0;fontStyle=1;align=center;resizeLast=1;html=1;" vertex="1" parent="1">
          <mxGeometry x="50" y="870" width="180" height="120" as="geometry" />
        </mxCell>
        <mxCell id="KuGaXg8JcHQKKmfSfJ2u-136" value="" style="shape=tableRow;horizontal=0;startSize=0;swimlaneHead=0;swimlaneBody=0;fillColor=none;collapsible=0;dropTarget=0;points=[[0,0.5],[1,0.5]];portConstraint=eastwest;top=0;left=0;right=0;bottom=1;" vertex="1" parent="KuGaXg8JcHQKKmfSfJ2u-126">
          <mxGeometry y="30" width="180" height="30" as="geometry" />
        </mxCell>
        <mxCell id="KuGaXg8JcHQKKmfSfJ2u-137" value="PK" style="shape=partialRectangle;connectable=0;fillColor=none;top=0;left=0;bottom=0;right=0;fontStyle=1;overflow=hidden;whiteSpace=wrap;html=1;" vertex="1" parent="KuGaXg8JcHQKKmfSfJ2u-136">
          <mxGeometry width="30" height="30" as="geometry">
            <mxRectangle width="30" height="30" as="alternateBounds" />
          </mxGeometry>
        </mxCell>
        <mxCell id="KuGaXg8JcHQKKmfSfJ2u-138" value="id" style="shape=partialRectangle;connectable=0;fillColor=none;top=0;left=0;bottom=0;right=0;align=left;spacingLeft=6;fontStyle=5;overflow=hidden;whiteSpace=wrap;html=1;" vertex="1" parent="KuGaXg8JcHQKKmfSfJ2u-136">
          <mxGeometry x="30" width="150" height="30" as="geometry">
            <mxRectangle width="150" height="30" as="alternateBounds" />
          </mxGeometry>
        </mxCell>
        <mxCell id="KuGaXg8JcHQKKmfSfJ2u-139" value="" style="shape=tableRow;horizontal=0;startSize=0;swimlaneHead=0;swimlaneBody=0;fillColor=none;collapsible=0;dropTarget=0;points=[[0,0.5],[1,0.5]];portConstraint=eastwest;top=0;left=0;right=0;bottom=1;" vertex="1" parent="KuGaXg8JcHQKKmfSfJ2u-126">
          <mxGeometry y="60" width="180" height="30" as="geometry" />
        </mxCell>
        <mxCell id="KuGaXg8JcHQKKmfSfJ2u-140" value="FK" style="shape=partialRectangle;connectable=0;fillColor=none;top=0;left=0;bottom=0;right=0;fontStyle=1;overflow=hidden;whiteSpace=wrap;html=1;" vertex="1" parent="KuGaXg8JcHQKKmfSfJ2u-139">
          <mxGeometry width="30" height="30" as="geometry">
            <mxRectangle width="30" height="30" as="alternateBounds" />
          </mxGeometry>
        </mxCell>
        <mxCell id="KuGaXg8JcHQKKmfSfJ2u-141" value="posts_id" style="shape=partialRectangle;connectable=0;fillColor=none;top=0;left=0;bottom=0;right=0;align=left;spacingLeft=6;fontStyle=5;overflow=hidden;whiteSpace=wrap;html=1;" vertex="1" parent="KuGaXg8JcHQKKmfSfJ2u-139">
          <mxGeometry x="30" width="150" height="30" as="geometry">
            <mxRectangle width="150" height="30" as="alternateBounds" />
          </mxGeometry>
        </mxCell>
        <mxCell id="KuGaXg8JcHQKKmfSfJ2u-127" value="" style="shape=tableRow;horizontal=0;startSize=0;swimlaneHead=0;swimlaneBody=0;fillColor=none;collapsible=0;dropTarget=0;points=[[0,0.5],[1,0.5]];portConstraint=eastwest;top=0;left=0;right=0;bottom=1;" vertex="1" parent="KuGaXg8JcHQKKmfSfJ2u-126">
          <mxGeometry y="90" width="180" height="30" as="geometry" />
        </mxCell>
        <mxCell id="KuGaXg8JcHQKKmfSfJ2u-128" value="FK" style="shape=partialRectangle;connectable=0;fillColor=none;top=0;left=0;bottom=0;right=0;fontStyle=1;overflow=hidden;whiteSpace=wrap;html=1;" vertex="1" parent="KuGaXg8JcHQKKmfSfJ2u-127">
          <mxGeometry width="30" height="30" as="geometry">
            <mxRectangle width="30" height="30" as="alternateBounds" />
          </mxGeometry>
        </mxCell>
        <mxCell id="KuGaXg8JcHQKKmfSfJ2u-129" value="users_id" style="shape=partialRectangle;connectable=0;fillColor=none;top=0;left=0;bottom=0;right=0;align=left;spacingLeft=6;fontStyle=5;overflow=hidden;whiteSpace=wrap;html=1;" vertex="1" parent="KuGaXg8JcHQKKmfSfJ2u-127">
          <mxGeometry x="30" width="150" height="30" as="geometry">
            <mxRectangle width="150" height="30" as="alternateBounds" />
          </mxGeometry>
        </mxCell>
        <mxCell id="KuGaXg8JcHQKKmfSfJ2u-157" value="hashtags" style="whiteSpace=wrap;html=1;align=center;" vertex="1" parent="1">
          <mxGeometry x="484" y="1090" width="100" height="40" as="geometry" />
        </mxCell>
        <mxCell id="KuGaXg8JcHQKKmfSfJ2u-158" value="id" style="ellipse;whiteSpace=wrap;html=1;align=center;fontStyle=4;" vertex="1" parent="1">
          <mxGeometry x="430" y="1170" width="100" height="40" as="geometry" />
        </mxCell>
        <mxCell id="KuGaXg8JcHQKKmfSfJ2u-159" value="tag" style="ellipse;whiteSpace=wrap;html=1;align=center;" vertex="1" parent="1">
          <mxGeometry x="540" y="1170" width="100" height="40" as="geometry" />
        </mxCell>
        <mxCell id="KuGaXg8JcHQKKmfSfJ2u-160" value="" style="endArrow=none;html=1;rounded=0;exitX=0.5;exitY=0;exitDx=0;exitDy=0;entryX=0.5;entryY=1;entryDx=0;entryDy=0;" edge="1" parent="1" source="KuGaXg8JcHQKKmfSfJ2u-158" target="KuGaXg8JcHQKKmfSfJ2u-157">
          <mxGeometry relative="1" as="geometry">
            <mxPoint x="590" y="1130" as="sourcePoint" />
            <mxPoint x="710" y="1090" as="targetPoint" />
          </mxGeometry>
        </mxCell>
        <mxCell id="KuGaXg8JcHQKKmfSfJ2u-161" value="" style="endArrow=none;html=1;rounded=0;exitX=0.5;exitY=0;exitDx=0;exitDy=0;entryX=0.5;entryY=1;entryDx=0;entryDy=0;" edge="1" parent="1" source="KuGaXg8JcHQKKmfSfJ2u-159" target="KuGaXg8JcHQKKmfSfJ2u-157">
          <mxGeometry relative="1" as="geometry">
            <mxPoint x="490" y="1180" as="sourcePoint" />
            <mxPoint x="544" y="1140" as="targetPoint" />
          </mxGeometry>
        </mxCell>
        <mxCell id="KuGaXg8JcHQKKmfSfJ2u-162" value="hashtags" style="shape=table;startSize=30;container=1;collapsible=1;childLayout=tableLayout;fixedRows=1;rowLines=0;fontStyle=1;align=center;resizeLast=1;html=1;" vertex="1" parent="1">
          <mxGeometry x="60" y="1110" width="180" height="90" as="geometry" />
        </mxCell>
        <mxCell id="KuGaXg8JcHQKKmfSfJ2u-163" value="" style="shape=tableRow;horizontal=0;startSize=0;swimlaneHead=0;swimlaneBody=0;fillColor=none;collapsible=0;dropTarget=0;points=[[0,0.5],[1,0.5]];portConstraint=eastwest;top=0;left=0;right=0;bottom=1;" vertex="1" parent="KuGaXg8JcHQKKmfSfJ2u-162">
          <mxGeometry y="30" width="180" height="30" as="geometry" />
        </mxCell>
        <mxCell id="KuGaXg8JcHQKKmfSfJ2u-164" value="PK" style="shape=partialRectangle;connectable=0;fillColor=none;top=0;left=0;bottom=0;right=0;fontStyle=1;overflow=hidden;whiteSpace=wrap;html=1;" vertex="1" parent="KuGaXg8JcHQKKmfSfJ2u-163">
          <mxGeometry width="30" height="30" as="geometry">
            <mxRectangle width="30" height="30" as="alternateBounds" />
          </mxGeometry>
        </mxCell>
        <mxCell id="KuGaXg8JcHQKKmfSfJ2u-165" value="id" style="shape=partialRectangle;connectable=0;fillColor=none;top=0;left=0;bottom=0;right=0;align=left;spacingLeft=6;fontStyle=5;overflow=hidden;whiteSpace=wrap;html=1;" vertex="1" parent="KuGaXg8JcHQKKmfSfJ2u-163">
          <mxGeometry x="30" width="150" height="30" as="geometry">
            <mxRectangle width="150" height="30" as="alternateBounds" />
          </mxGeometry>
        </mxCell>
        <mxCell id="KuGaXg8JcHQKKmfSfJ2u-166" value="" style="shape=tableRow;horizontal=0;startSize=0;swimlaneHead=0;swimlaneBody=0;fillColor=none;collapsible=0;dropTarget=0;points=[[0,0.5],[1,0.5]];portConstraint=eastwest;top=0;left=0;right=0;bottom=0;" vertex="1" parent="KuGaXg8JcHQKKmfSfJ2u-162">
          <mxGeometry y="60" width="180" height="30" as="geometry" />
        </mxCell>
        <mxCell id="KuGaXg8JcHQKKmfSfJ2u-167" value="" style="shape=partialRectangle;connectable=0;fillColor=none;top=0;left=0;bottom=0;right=0;editable=1;overflow=hidden;whiteSpace=wrap;html=1;" vertex="1" parent="KuGaXg8JcHQKKmfSfJ2u-166">
          <mxGeometry width="30" height="30" as="geometry">
            <mxRectangle width="30" height="30" as="alternateBounds" />
          </mxGeometry>
        </mxCell>
        <mxCell id="KuGaXg8JcHQKKmfSfJ2u-168" value="tag" style="shape=partialRectangle;connectable=0;fillColor=none;top=0;left=0;bottom=0;right=0;align=left;spacingLeft=6;overflow=hidden;whiteSpace=wrap;html=1;" vertex="1" parent="KuGaXg8JcHQKKmfSfJ2u-166">
          <mxGeometry x="30" width="150" height="30" as="geometry">
            <mxRectangle width="150" height="30" as="alternateBounds" />
          </mxGeometry>
        </mxCell>
        <mxCell id="KuGaXg8JcHQKKmfSfJ2u-170" value="likes" style="whiteSpace=wrap;html=1;align=center;" vertex="1" parent="1">
          <mxGeometry x="474" y="1290" width="100" height="40" as="geometry" />
        </mxCell>
        <mxCell id="KuGaXg8JcHQKKmfSfJ2u-171" value="users_id(FK)" style="ellipse;whiteSpace=wrap;html=1;align=center;" vertex="1" parent="1">
          <mxGeometry x="474" y="1370" width="100" height="40" as="geometry" />
        </mxCell>
        <mxCell id="KuGaXg8JcHQKKmfSfJ2u-172" value="posts_id(FK)" style="ellipse;whiteSpace=wrap;html=1;align=center;" vertex="1" parent="1">
          <mxGeometry x="582" y="1370" width="100" height="40" as="geometry" />
        </mxCell>
        <mxCell id="KuGaXg8JcHQKKmfSfJ2u-173" value="" style="endArrow=none;html=1;rounded=0;exitX=0.5;exitY=0;exitDx=0;exitDy=0;entryX=0.5;entryY=1;entryDx=0;entryDy=0;" edge="1" parent="1" source="KuGaXg8JcHQKKmfSfJ2u-171" target="KuGaXg8JcHQKKmfSfJ2u-170">
          <mxGeometry relative="1" as="geometry">
            <mxPoint x="480" y="1120" as="sourcePoint" />
            <mxPoint x="534" y="1080" as="targetPoint" />
          </mxGeometry>
        </mxCell>
        <mxCell id="KuGaXg8JcHQKKmfSfJ2u-174" value="" style="endArrow=none;html=1;rounded=0;exitX=0.5;exitY=0;exitDx=0;exitDy=0;entryX=0.5;entryY=1;entryDx=0;entryDy=0;" edge="1" parent="1" source="KuGaXg8JcHQKKmfSfJ2u-172" target="KuGaXg8JcHQKKmfSfJ2u-170">
          <mxGeometry relative="1" as="geometry">
            <mxPoint x="473" y="1380" as="sourcePoint" />
            <mxPoint x="534" y="1340" as="targetPoint" />
          </mxGeometry>
        </mxCell>
        <mxCell id="KuGaXg8JcHQKKmfSfJ2u-175" value="likes" style="shape=table;startSize=30;container=1;collapsible=1;childLayout=tableLayout;fixedRows=1;rowLines=0;fontStyle=1;align=center;resizeLast=1;html=1;" vertex="1" parent="1">
          <mxGeometry x="50" y="1300" width="180" height="120" as="geometry" />
        </mxCell>
        <mxCell id="KuGaXg8JcHQKKmfSfJ2u-185" value="" style="shape=tableRow;horizontal=0;startSize=0;swimlaneHead=0;swimlaneBody=0;fillColor=none;collapsible=0;dropTarget=0;points=[[0,0.5],[1,0.5]];portConstraint=eastwest;top=0;left=0;right=0;bottom=1;" vertex="1" parent="KuGaXg8JcHQKKmfSfJ2u-175">
          <mxGeometry y="30" width="180" height="30" as="geometry" />
        </mxCell>
        <mxCell id="KuGaXg8JcHQKKmfSfJ2u-186" value="PK" style="shape=partialRectangle;connectable=0;fillColor=none;top=0;left=0;bottom=0;right=0;fontStyle=1;overflow=hidden;whiteSpace=wrap;html=1;" vertex="1" parent="KuGaXg8JcHQKKmfSfJ2u-185">
          <mxGeometry width="30" height="30" as="geometry">
            <mxRectangle width="30" height="30" as="alternateBounds" />
          </mxGeometry>
        </mxCell>
        <mxCell id="KuGaXg8JcHQKKmfSfJ2u-187" value="id" style="shape=partialRectangle;connectable=0;fillColor=none;top=0;left=0;bottom=0;right=0;align=left;spacingLeft=6;fontStyle=5;overflow=hidden;whiteSpace=wrap;html=1;" vertex="1" parent="KuGaXg8JcHQKKmfSfJ2u-185">
          <mxGeometry x="30" width="150" height="30" as="geometry">
            <mxRectangle width="150" height="30" as="alternateBounds" />
          </mxGeometry>
        </mxCell>
        <mxCell id="KuGaXg8JcHQKKmfSfJ2u-182" value="" style="shape=tableRow;horizontal=0;startSize=0;swimlaneHead=0;swimlaneBody=0;fillColor=none;collapsible=0;dropTarget=0;points=[[0,0.5],[1,0.5]];portConstraint=eastwest;top=0;left=0;right=0;bottom=1;" vertex="1" parent="KuGaXg8JcHQKKmfSfJ2u-175">
          <mxGeometry y="60" width="180" height="30" as="geometry" />
        </mxCell>
        <mxCell id="KuGaXg8JcHQKKmfSfJ2u-183" value="FK" style="shape=partialRectangle;connectable=0;fillColor=none;top=0;left=0;bottom=0;right=0;fontStyle=1;overflow=hidden;whiteSpace=wrap;html=1;" vertex="1" parent="KuGaXg8JcHQKKmfSfJ2u-182">
          <mxGeometry width="30" height="30" as="geometry">
            <mxRectangle width="30" height="30" as="alternateBounds" />
          </mxGeometry>
        </mxCell>
        <mxCell id="KuGaXg8JcHQKKmfSfJ2u-184" value="&lt;span style=&quot;font-weight: 400; text-align: center;&quot;&gt;users_id(FK)&lt;/span&gt;" style="shape=partialRectangle;connectable=0;fillColor=none;top=0;left=0;bottom=0;right=0;align=left;spacingLeft=6;fontStyle=5;overflow=hidden;whiteSpace=wrap;html=1;" vertex="1" parent="KuGaXg8JcHQKKmfSfJ2u-182">
          <mxGeometry x="30" width="150" height="30" as="geometry">
            <mxRectangle width="150" height="30" as="alternateBounds" />
          </mxGeometry>
        </mxCell>
        <mxCell id="KuGaXg8JcHQKKmfSfJ2u-176" value="" style="shape=tableRow;horizontal=0;startSize=0;swimlaneHead=0;swimlaneBody=0;fillColor=none;collapsible=0;dropTarget=0;points=[[0,0.5],[1,0.5]];portConstraint=eastwest;top=0;left=0;right=0;bottom=1;" vertex="1" parent="KuGaXg8JcHQKKmfSfJ2u-175">
          <mxGeometry y="90" width="180" height="30" as="geometry" />
        </mxCell>
        <mxCell id="KuGaXg8JcHQKKmfSfJ2u-177" value="FK" style="shape=partialRectangle;connectable=0;fillColor=none;top=0;left=0;bottom=0;right=0;fontStyle=1;overflow=hidden;whiteSpace=wrap;html=1;" vertex="1" parent="KuGaXg8JcHQKKmfSfJ2u-176">
          <mxGeometry width="30" height="30" as="geometry">
            <mxRectangle width="30" height="30" as="alternateBounds" />
          </mxGeometry>
        </mxCell>
        <mxCell id="KuGaXg8JcHQKKmfSfJ2u-178" value="&lt;span style=&quot;font-weight: 400; text-align: center;&quot;&gt;posts_id(FK)&lt;/span&gt;" style="shape=partialRectangle;connectable=0;fillColor=none;top=0;left=0;bottom=0;right=0;align=left;spacingLeft=6;fontStyle=5;overflow=hidden;whiteSpace=wrap;html=1;" vertex="1" parent="KuGaXg8JcHQKKmfSfJ2u-176">
          <mxGeometry x="30" width="150" height="30" as="geometry">
            <mxRectangle width="150" height="30" as="alternateBounds" />
          </mxGeometry>
        </mxCell>
        <mxCell id="KuGaXg8JcHQKKmfSfJ2u-188" value="id" style="ellipse;whiteSpace=wrap;html=1;align=center;fontStyle=4;" vertex="1" parent="1">
          <mxGeometry x="366" y="1370" width="100" height="40" as="geometry" />
        </mxCell>
        <mxCell id="KuGaXg8JcHQKKmfSfJ2u-189" value="" style="endArrow=none;html=1;rounded=0;exitX=0.417;exitY=0;exitDx=0;exitDy=0;entryX=0.5;entryY=1;entryDx=0;entryDy=0;exitPerimeter=0;" edge="1" parent="1" source="KuGaXg8JcHQKKmfSfJ2u-188" target="KuGaXg8JcHQKKmfSfJ2u-170">
          <mxGeometry relative="1" as="geometry">
            <mxPoint x="535" y="1380" as="sourcePoint" />
            <mxPoint x="534" y="1340" as="targetPoint" />
          </mxGeometry>
        </mxCell>
        <mxCell id="KuGaXg8JcHQKKmfSfJ2u-209" value="reports" style="whiteSpace=wrap;html=1;align=center;" vertex="1" parent="1">
          <mxGeometry x="473.5" y="1560" width="100" height="40" as="geometry" />
        </mxCell>
        <mxCell id="KuGaXg8JcHQKKmfSfJ2u-210" value="id" style="ellipse;whiteSpace=wrap;html=1;align=center;fontStyle=4;" vertex="1" parent="1">
          <mxGeometry x="310" y="1640" width="100" height="40" as="geometry" />
        </mxCell>
        <mxCell id="KuGaXg8JcHQKKmfSfJ2u-211" value="content" style="ellipse;whiteSpace=wrap;html=1;align=center;" vertex="1" parent="1">
          <mxGeometry x="421" y="1640" width="100" height="40" as="geometry" />
        </mxCell>
        <mxCell id="KuGaXg8JcHQKKmfSfJ2u-213" value="users_id(FK)" style="ellipse;whiteSpace=wrap;html=1;align=center;" vertex="1" parent="1">
          <mxGeometry x="529" y="1640" width="100" height="40" as="geometry" />
        </mxCell>
        <mxCell id="KuGaXg8JcHQKKmfSfJ2u-214" value="posts_id(FK)" style="ellipse;whiteSpace=wrap;html=1;align=center;" vertex="1" parent="1">
          <mxGeometry x="637" y="1640" width="100" height="40" as="geometry" />
        </mxCell>
        <mxCell id="KuGaXg8JcHQKKmfSfJ2u-215" value="" style="endArrow=none;html=1;rounded=0;exitX=0.5;exitY=0;exitDx=0;exitDy=0;entryX=0.5;entryY=1;entryDx=0;entryDy=0;" edge="1" parent="1" source="KuGaXg8JcHQKKmfSfJ2u-210" target="KuGaXg8JcHQKKmfSfJ2u-209">
          <mxGeometry relative="1" as="geometry">
            <mxPoint x="418" y="1380" as="sourcePoint" />
            <mxPoint x="534" y="1340" as="targetPoint" />
          </mxGeometry>
        </mxCell>
        <mxCell id="KuGaXg8JcHQKKmfSfJ2u-217" value="" style="endArrow=none;html=1;rounded=0;exitX=0.5;exitY=0;exitDx=0;exitDy=0;entryX=0.5;entryY=1;entryDx=0;entryDy=0;" edge="1" parent="1" source="KuGaXg8JcHQKKmfSfJ2u-211" target="KuGaXg8JcHQKKmfSfJ2u-209">
          <mxGeometry relative="1" as="geometry">
            <mxPoint x="370" y="1650" as="sourcePoint" />
            <mxPoint x="534" y="1610" as="targetPoint" />
          </mxGeometry>
        </mxCell>
        <mxCell id="KuGaXg8JcHQKKmfSfJ2u-218" value="" style="endArrow=none;html=1;rounded=0;exitX=0.5;exitY=0;exitDx=0;exitDy=0;entryX=0.5;entryY=1;entryDx=0;entryDy=0;" edge="1" parent="1" source="KuGaXg8JcHQKKmfSfJ2u-213" target="KuGaXg8JcHQKKmfSfJ2u-209">
          <mxGeometry relative="1" as="geometry">
            <mxPoint x="481" y="1650" as="sourcePoint" />
            <mxPoint x="534" y="1610" as="targetPoint" />
          </mxGeometry>
        </mxCell>
        <mxCell id="KuGaXg8JcHQKKmfSfJ2u-219" value="" style="endArrow=none;html=1;rounded=0;exitX=0.5;exitY=0;exitDx=0;exitDy=0;entryX=0.5;entryY=1;entryDx=0;entryDy=0;" edge="1" parent="1" source="KuGaXg8JcHQKKmfSfJ2u-214" target="KuGaXg8JcHQKKmfSfJ2u-209">
          <mxGeometry relative="1" as="geometry">
            <mxPoint x="589" y="1650" as="sourcePoint" />
            <mxPoint x="534" y="1610" as="targetPoint" />
          </mxGeometry>
        </mxCell>
        <mxCell id="KuGaXg8JcHQKKmfSfJ2u-233" value="reports" style="shape=table;startSize=30;container=1;collapsible=1;childLayout=tableLayout;fixedRows=1;rowLines=0;fontStyle=1;align=center;resizeLast=1;html=1;" vertex="1" parent="1">
          <mxGeometry x="50" y="1540" width="180" height="150" as="geometry" />
        </mxCell>
        <mxCell id="KuGaXg8JcHQKKmfSfJ2u-234" value="" style="shape=tableRow;horizontal=0;startSize=0;swimlaneHead=0;swimlaneBody=0;fillColor=none;collapsible=0;dropTarget=0;points=[[0,0.5],[1,0.5]];portConstraint=eastwest;top=0;left=0;right=0;bottom=1;" vertex="1" parent="KuGaXg8JcHQKKmfSfJ2u-233">
          <mxGeometry y="30" width="180" height="30" as="geometry" />
        </mxCell>
        <mxCell id="KuGaXg8JcHQKKmfSfJ2u-235" value="PK" style="shape=partialRectangle;connectable=0;fillColor=none;top=0;left=0;bottom=0;right=0;fontStyle=1;overflow=hidden;whiteSpace=wrap;html=1;" vertex="1" parent="KuGaXg8JcHQKKmfSfJ2u-234">
          <mxGeometry width="30" height="30" as="geometry">
            <mxRectangle width="30" height="30" as="alternateBounds" />
          </mxGeometry>
        </mxCell>
        <mxCell id="KuGaXg8JcHQKKmfSfJ2u-236" value="id" style="shape=partialRectangle;connectable=0;fillColor=none;top=0;left=0;bottom=0;right=0;align=left;spacingLeft=6;fontStyle=5;overflow=hidden;whiteSpace=wrap;html=1;" vertex="1" parent="KuGaXg8JcHQKKmfSfJ2u-234">
          <mxGeometry x="30" width="150" height="30" as="geometry">
            <mxRectangle width="150" height="30" as="alternateBounds" />
          </mxGeometry>
        </mxCell>
        <mxCell id="KuGaXg8JcHQKKmfSfJ2u-237" value="" style="shape=tableRow;horizontal=0;startSize=0;swimlaneHead=0;swimlaneBody=0;fillColor=none;collapsible=0;dropTarget=0;points=[[0,0.5],[1,0.5]];portConstraint=eastwest;top=0;left=0;right=0;bottom=1;" vertex="1" parent="KuGaXg8JcHQKKmfSfJ2u-233">
          <mxGeometry y="60" width="180" height="30" as="geometry" />
        </mxCell>
        <mxCell id="KuGaXg8JcHQKKmfSfJ2u-238" value="FK" style="shape=partialRectangle;connectable=0;fillColor=none;top=0;left=0;bottom=0;right=0;fontStyle=1;overflow=hidden;whiteSpace=wrap;html=1;" vertex="1" parent="KuGaXg8JcHQKKmfSfJ2u-237">
          <mxGeometry width="30" height="30" as="geometry">
            <mxRectangle width="30" height="30" as="alternateBounds" />
          </mxGeometry>
        </mxCell>
        <mxCell id="KuGaXg8JcHQKKmfSfJ2u-239" value="&lt;span style=&quot;font-weight: 400;&quot;&gt;users_id(FK)&lt;/span&gt;" style="shape=partialRectangle;connectable=0;fillColor=none;top=0;left=0;bottom=0;right=0;align=left;spacingLeft=6;fontStyle=5;overflow=hidden;whiteSpace=wrap;html=1;" vertex="1" parent="KuGaXg8JcHQKKmfSfJ2u-237">
          <mxGeometry x="30" width="150" height="30" as="geometry">
            <mxRectangle width="150" height="30" as="alternateBounds" />
          </mxGeometry>
        </mxCell>
        <mxCell id="KuGaXg8JcHQKKmfSfJ2u-240" value="" style="shape=tableRow;horizontal=0;startSize=0;swimlaneHead=0;swimlaneBody=0;fillColor=none;collapsible=0;dropTarget=0;points=[[0,0.5],[1,0.5]];portConstraint=eastwest;top=0;left=0;right=0;bottom=1;" vertex="1" parent="KuGaXg8JcHQKKmfSfJ2u-233">
          <mxGeometry y="90" width="180" height="30" as="geometry" />
        </mxCell>
        <mxCell id="KuGaXg8JcHQKKmfSfJ2u-241" value="FK" style="shape=partialRectangle;connectable=0;fillColor=none;top=0;left=0;bottom=0;right=0;fontStyle=1;overflow=hidden;whiteSpace=wrap;html=1;" vertex="1" parent="KuGaXg8JcHQKKmfSfJ2u-240">
          <mxGeometry width="30" height="30" as="geometry">
            <mxRectangle width="30" height="30" as="alternateBounds" />
          </mxGeometry>
        </mxCell>
        <mxCell id="KuGaXg8JcHQKKmfSfJ2u-242" value="&lt;span style=&quot;font-weight: 400; text-align: center;&quot;&gt;posts_id(FK)&lt;/span&gt;" style="shape=partialRectangle;connectable=0;fillColor=none;top=0;left=0;bottom=0;right=0;align=left;spacingLeft=6;fontStyle=5;overflow=hidden;whiteSpace=wrap;html=1;" vertex="1" parent="KuGaXg8JcHQKKmfSfJ2u-240">
          <mxGeometry x="30" width="150" height="30" as="geometry">
            <mxRectangle width="150" height="30" as="alternateBounds" />
          </mxGeometry>
        </mxCell>
        <mxCell id="KuGaXg8JcHQKKmfSfJ2u-243" value="" style="shape=tableRow;horizontal=0;startSize=0;swimlaneHead=0;swimlaneBody=0;fillColor=none;collapsible=0;dropTarget=0;points=[[0,0.5],[1,0.5]];portConstraint=eastwest;top=0;left=0;right=0;bottom=0;" vertex="1" parent="KuGaXg8JcHQKKmfSfJ2u-233">
          <mxGeometry y="120" width="180" height="30" as="geometry" />
        </mxCell>
        <mxCell id="KuGaXg8JcHQKKmfSfJ2u-244" value="" style="shape=partialRectangle;connectable=0;fillColor=none;top=0;left=0;bottom=0;right=0;editable=1;overflow=hidden;whiteSpace=wrap;html=1;" vertex="1" parent="KuGaXg8JcHQKKmfSfJ2u-243">
          <mxGeometry width="30" height="30" as="geometry">
            <mxRectangle width="30" height="30" as="alternateBounds" />
          </mxGeometry>
        </mxCell>
        <mxCell id="KuGaXg8JcHQKKmfSfJ2u-245" value="content" style="shape=partialRectangle;connectable=0;fillColor=none;top=0;left=0;bottom=0;right=0;align=left;spacingLeft=6;overflow=hidden;whiteSpace=wrap;html=1;" vertex="1" parent="KuGaXg8JcHQKKmfSfJ2u-243">
          <mxGeometry x="30" width="150" height="30" as="geometry">
            <mxRectangle width="150" height="30" as="alternateBounds" />
          </mxGeometry>
        </mxCell>
        <mxCell id="KuGaXg8JcHQKKmfSfJ2u-259" value="followers" style="whiteSpace=wrap;html=1;align=center;" vertex="1" parent="1">
          <mxGeometry x="473.5" y="1900" width="100" height="40" as="geometry" />
        </mxCell>
        <mxCell id="KuGaXg8JcHQKKmfSfJ2u-260" value="users_id(FK)" style="ellipse;whiteSpace=wrap;html=1;align=center;" vertex="1" parent="1">
          <mxGeometry x="474" y="1980" width="100" height="40" as="geometry" />
        </mxCell>
        <mxCell id="KuGaXg8JcHQKKmfSfJ2u-261" value="posts_id(FK)" style="ellipse;whiteSpace=wrap;html=1;align=center;" vertex="1" parent="1">
          <mxGeometry x="582" y="1980" width="100" height="40" as="geometry" />
        </mxCell>
        <mxCell id="KuGaXg8JcHQKKmfSfJ2u-262" value="id" style="ellipse;whiteSpace=wrap;html=1;align=center;fontStyle=4;" vertex="1" parent="1">
          <mxGeometry x="364" y="1980" width="100" height="40" as="geometry" />
        </mxCell>
        <mxCell id="KuGaXg8JcHQKKmfSfJ2u-263" value="followers" style="shape=table;startSize=30;container=1;collapsible=1;childLayout=tableLayout;fixedRows=1;rowLines=0;fontStyle=1;align=center;resizeLast=1;html=1;" vertex="1" parent="1">
          <mxGeometry x="50" y="1900" width="180" height="120" as="geometry" />
        </mxCell>
        <mxCell id="KuGaXg8JcHQKKmfSfJ2u-264" value="" style="shape=tableRow;horizontal=0;startSize=0;swimlaneHead=0;swimlaneBody=0;fillColor=none;collapsible=0;dropTarget=0;points=[[0,0.5],[1,0.5]];portConstraint=eastwest;top=0;left=0;right=0;bottom=1;" vertex="1" parent="KuGaXg8JcHQKKmfSfJ2u-263">
          <mxGeometry y="30" width="180" height="30" as="geometry" />
        </mxCell>
        <mxCell id="KuGaXg8JcHQKKmfSfJ2u-265" value="PK" style="shape=partialRectangle;connectable=0;fillColor=none;top=0;left=0;bottom=0;right=0;fontStyle=1;overflow=hidden;whiteSpace=wrap;html=1;" vertex="1" parent="KuGaXg8JcHQKKmfSfJ2u-264">
          <mxGeometry width="30" height="30" as="geometry">
            <mxRectangle width="30" height="30" as="alternateBounds" />
          </mxGeometry>
        </mxCell>
        <mxCell id="KuGaXg8JcHQKKmfSfJ2u-266" value="id" style="shape=partialRectangle;connectable=0;fillColor=none;top=0;left=0;bottom=0;right=0;align=left;spacingLeft=6;fontStyle=5;overflow=hidden;whiteSpace=wrap;html=1;" vertex="1" parent="KuGaXg8JcHQKKmfSfJ2u-264">
          <mxGeometry x="30" width="150" height="30" as="geometry">
            <mxRectangle width="150" height="30" as="alternateBounds" />
          </mxGeometry>
        </mxCell>
        <mxCell id="KuGaXg8JcHQKKmfSfJ2u-267" value="" style="shape=tableRow;horizontal=0;startSize=0;swimlaneHead=0;swimlaneBody=0;fillColor=none;collapsible=0;dropTarget=0;points=[[0,0.5],[1,0.5]];portConstraint=eastwest;top=0;left=0;right=0;bottom=1;" vertex="1" parent="KuGaXg8JcHQKKmfSfJ2u-263">
          <mxGeometry y="60" width="180" height="30" as="geometry" />
        </mxCell>
        <mxCell id="KuGaXg8JcHQKKmfSfJ2u-268" value="FK" style="shape=partialRectangle;connectable=0;fillColor=none;top=0;left=0;bottom=0;right=0;fontStyle=1;overflow=hidden;whiteSpace=wrap;html=1;" vertex="1" parent="KuGaXg8JcHQKKmfSfJ2u-267">
          <mxGeometry width="30" height="30" as="geometry">
            <mxRectangle width="30" height="30" as="alternateBounds" />
          </mxGeometry>
        </mxCell>
        <mxCell id="KuGaXg8JcHQKKmfSfJ2u-269" value="&lt;span style=&quot;font-weight: 400;&quot;&gt;users_id(FK)&lt;/span&gt;" style="shape=partialRectangle;connectable=0;fillColor=none;top=0;left=0;bottom=0;right=0;align=left;spacingLeft=6;fontStyle=5;overflow=hidden;whiteSpace=wrap;html=1;" vertex="1" parent="KuGaXg8JcHQKKmfSfJ2u-267">
          <mxGeometry x="30" width="150" height="30" as="geometry">
            <mxRectangle width="150" height="30" as="alternateBounds" />
          </mxGeometry>
        </mxCell>
        <mxCell id="KuGaXg8JcHQKKmfSfJ2u-270" value="" style="shape=tableRow;horizontal=0;startSize=0;swimlaneHead=0;swimlaneBody=0;fillColor=none;collapsible=0;dropTarget=0;points=[[0,0.5],[1,0.5]];portConstraint=eastwest;top=0;left=0;right=0;bottom=1;" vertex="1" parent="KuGaXg8JcHQKKmfSfJ2u-263">
          <mxGeometry y="90" width="180" height="30" as="geometry" />
        </mxCell>
        <mxCell id="KuGaXg8JcHQKKmfSfJ2u-271" value="FK" style="shape=partialRectangle;connectable=0;fillColor=none;top=0;left=0;bottom=0;right=0;fontStyle=1;overflow=hidden;whiteSpace=wrap;html=1;" vertex="1" parent="KuGaXg8JcHQKKmfSfJ2u-270">
          <mxGeometry width="30" height="30" as="geometry">
            <mxRectangle width="30" height="30" as="alternateBounds" />
          </mxGeometry>
        </mxCell>
        <mxCell id="KuGaXg8JcHQKKmfSfJ2u-272" value="&lt;span style=&quot;font-weight: 400; text-align: center;&quot;&gt;posts_id(FK)&lt;/span&gt;" style="shape=partialRectangle;connectable=0;fillColor=none;top=0;left=0;bottom=0;right=0;align=left;spacingLeft=6;fontStyle=5;overflow=hidden;whiteSpace=wrap;html=1;" vertex="1" parent="KuGaXg8JcHQKKmfSfJ2u-270">
          <mxGeometry x="30" width="150" height="30" as="geometry">
            <mxRectangle width="150" height="30" as="alternateBounds" />
          </mxGeometry>
        </mxCell>
        <mxCell id="KuGaXg8JcHQKKmfSfJ2u-276" value="" style="endArrow=none;html=1;rounded=0;exitX=0.5;exitY=0;exitDx=0;exitDy=0;entryX=0.5;entryY=1;entryDx=0;entryDy=0;" edge="1" parent="1" source="KuGaXg8JcHQKKmfSfJ2u-262" target="KuGaXg8JcHQKKmfSfJ2u-259">
          <mxGeometry relative="1" as="geometry">
            <mxPoint x="481" y="1650" as="sourcePoint" />
            <mxPoint x="534" y="1610" as="targetPoint" />
          </mxGeometry>
        </mxCell>
        <mxCell id="KuGaXg8JcHQKKmfSfJ2u-277" value="" style="endArrow=none;html=1;rounded=0;exitX=0.5;exitY=0;exitDx=0;exitDy=0;entryX=0.5;entryY=1;entryDx=0;entryDy=0;" edge="1" parent="1" source="KuGaXg8JcHQKKmfSfJ2u-260" target="KuGaXg8JcHQKKmfSfJ2u-259">
          <mxGeometry relative="1" as="geometry">
            <mxPoint x="424" y="1990" as="sourcePoint" />
            <mxPoint x="534" y="1950" as="targetPoint" />
          </mxGeometry>
        </mxCell>
        <mxCell id="KuGaXg8JcHQKKmfSfJ2u-278" value="" style="endArrow=none;html=1;rounded=0;exitX=0.5;exitY=0;exitDx=0;exitDy=0;entryX=0.5;entryY=1;entryDx=0;entryDy=0;" edge="1" parent="1" source="KuGaXg8JcHQKKmfSfJ2u-261" target="KuGaXg8JcHQKKmfSfJ2u-259">
          <mxGeometry relative="1" as="geometry">
            <mxPoint x="531" y="1990" as="sourcePoint" />
            <mxPoint x="534" y="1950" as="targetPoint" />
          </mxGeometry>
        </mxCell>
        <mxCell id="KuGaXg8JcHQKKmfSfJ2u-279" value="posts_hashtags" style="whiteSpace=wrap;html=1;align=center;" vertex="1" parent="1">
          <mxGeometry x="474" y="2140" width="100" height="40" as="geometry" />
        </mxCell>
        <mxCell id="KuGaXg8JcHQKKmfSfJ2u-280" value="hashtags_id(FK)" style="ellipse;whiteSpace=wrap;html=1;align=center;" vertex="1" parent="1">
          <mxGeometry x="594" y="2210" width="100" height="40" as="geometry" />
        </mxCell>
        <mxCell id="KuGaXg8JcHQKKmfSfJ2u-281" value="id" style="ellipse;whiteSpace=wrap;html=1;align=center;fontStyle=4;" vertex="1" parent="1">
          <mxGeometry x="354" y="2210" width="100" height="40" as="geometry" />
        </mxCell>
        <mxCell id="KuGaXg8JcHQKKmfSfJ2u-282" value="users_id(FK)" style="ellipse;whiteSpace=wrap;html=1;align=center;" vertex="1" parent="1">
          <mxGeometry x="474" y="2210" width="100" height="40" as="geometry" />
        </mxCell>
        <mxCell id="KuGaXg8JcHQKKmfSfJ2u-283" value="" style="endArrow=none;html=1;rounded=0;exitX=0.5;exitY=0;exitDx=0;exitDy=0;entryX=0.5;entryY=1;entryDx=0;entryDy=0;" edge="1" parent="1" source="KuGaXg8JcHQKKmfSfJ2u-281" target="KuGaXg8JcHQKKmfSfJ2u-279">
          <mxGeometry relative="1" as="geometry">
            <mxPoint x="424" y="1990" as="sourcePoint" />
            <mxPoint x="534" y="1950" as="targetPoint" />
          </mxGeometry>
        </mxCell>
        <mxCell id="KuGaXg8JcHQKKmfSfJ2u-284" value="" style="endArrow=none;html=1;rounded=0;exitX=0.5;exitY=0;exitDx=0;exitDy=0;entryX=0.5;entryY=1;entryDx=0;entryDy=0;" edge="1" parent="1" source="KuGaXg8JcHQKKmfSfJ2u-282" target="KuGaXg8JcHQKKmfSfJ2u-279">
          <mxGeometry relative="1" as="geometry">
            <mxPoint x="414" y="2220" as="sourcePoint" />
            <mxPoint x="534" y="2190" as="targetPoint" />
          </mxGeometry>
        </mxCell>
        <mxCell id="KuGaXg8JcHQKKmfSfJ2u-285" value="" style="endArrow=none;html=1;rounded=0;exitX=0.5;exitY=0;exitDx=0;exitDy=0;entryX=0.5;entryY=1;entryDx=0;entryDy=0;" edge="1" parent="1" source="KuGaXg8JcHQKKmfSfJ2u-280" target="KuGaXg8JcHQKKmfSfJ2u-279">
          <mxGeometry relative="1" as="geometry">
            <mxPoint x="534" y="2220" as="sourcePoint" />
            <mxPoint x="534" y="2190" as="targetPoint" />
          </mxGeometry>
        </mxCell>
        <mxCell id="KuGaXg8JcHQKKmfSfJ2u-286" value="posts_hashtags" style="shape=table;startSize=30;container=1;collapsible=1;childLayout=tableLayout;fixedRows=1;rowLines=0;fontStyle=1;align=center;resizeLast=1;html=1;" vertex="1" parent="1">
          <mxGeometry x="50" y="2130" width="180" height="120" as="geometry" />
        </mxCell>
        <mxCell id="KuGaXg8JcHQKKmfSfJ2u-287" value="" style="shape=tableRow;horizontal=0;startSize=0;swimlaneHead=0;swimlaneBody=0;fillColor=none;collapsible=0;dropTarget=0;points=[[0,0.5],[1,0.5]];portConstraint=eastwest;top=0;left=0;right=0;bottom=1;" vertex="1" parent="KuGaXg8JcHQKKmfSfJ2u-286">
          <mxGeometry y="30" width="180" height="30" as="geometry" />
        </mxCell>
        <mxCell id="KuGaXg8JcHQKKmfSfJ2u-288" value="PK" style="shape=partialRectangle;connectable=0;fillColor=none;top=0;left=0;bottom=0;right=0;fontStyle=1;overflow=hidden;whiteSpace=wrap;html=1;" vertex="1" parent="KuGaXg8JcHQKKmfSfJ2u-287">
          <mxGeometry width="30" height="30" as="geometry">
            <mxRectangle width="30" height="30" as="alternateBounds" />
          </mxGeometry>
        </mxCell>
        <mxCell id="KuGaXg8JcHQKKmfSfJ2u-289" value="id" style="shape=partialRectangle;connectable=0;fillColor=none;top=0;left=0;bottom=0;right=0;align=left;spacingLeft=6;fontStyle=5;overflow=hidden;whiteSpace=wrap;html=1;" vertex="1" parent="KuGaXg8JcHQKKmfSfJ2u-287">
          <mxGeometry x="30" width="150" height="30" as="geometry">
            <mxRectangle width="150" height="30" as="alternateBounds" />
          </mxGeometry>
        </mxCell>
        <mxCell id="KuGaXg8JcHQKKmfSfJ2u-290" value="" style="shape=tableRow;horizontal=0;startSize=0;swimlaneHead=0;swimlaneBody=0;fillColor=none;collapsible=0;dropTarget=0;points=[[0,0.5],[1,0.5]];portConstraint=eastwest;top=0;left=0;right=0;bottom=1;" vertex="1" parent="KuGaXg8JcHQKKmfSfJ2u-286">
          <mxGeometry y="60" width="180" height="30" as="geometry" />
        </mxCell>
        <mxCell id="KuGaXg8JcHQKKmfSfJ2u-291" value="FK" style="shape=partialRectangle;connectable=0;fillColor=none;top=0;left=0;bottom=0;right=0;fontStyle=1;overflow=hidden;whiteSpace=wrap;html=1;" vertex="1" parent="KuGaXg8JcHQKKmfSfJ2u-290">
          <mxGeometry width="30" height="30" as="geometry">
            <mxRectangle width="30" height="30" as="alternateBounds" />
          </mxGeometry>
        </mxCell>
        <mxCell id="KuGaXg8JcHQKKmfSfJ2u-292" value="&lt;span style=&quot;font-weight: 400;&quot;&gt;users_id(FK)&lt;/span&gt;" style="shape=partialRectangle;connectable=0;fillColor=none;top=0;left=0;bottom=0;right=0;align=left;spacingLeft=6;fontStyle=5;overflow=hidden;whiteSpace=wrap;html=1;" vertex="1" parent="KuGaXg8JcHQKKmfSfJ2u-290">
          <mxGeometry x="30" width="150" height="30" as="geometry">
            <mxRectangle width="150" height="30" as="alternateBounds" />
          </mxGeometry>
        </mxCell>
        <mxCell id="KuGaXg8JcHQKKmfSfJ2u-293" value="" style="shape=tableRow;horizontal=0;startSize=0;swimlaneHead=0;swimlaneBody=0;fillColor=none;collapsible=0;dropTarget=0;points=[[0,0.5],[1,0.5]];portConstraint=eastwest;top=0;left=0;right=0;bottom=1;" vertex="1" parent="KuGaXg8JcHQKKmfSfJ2u-286">
          <mxGeometry y="90" width="180" height="30" as="geometry" />
        </mxCell>
        <mxCell id="KuGaXg8JcHQKKmfSfJ2u-294" value="FK" style="shape=partialRectangle;connectable=0;fillColor=none;top=0;left=0;bottom=0;right=0;fontStyle=1;overflow=hidden;whiteSpace=wrap;html=1;" vertex="1" parent="KuGaXg8JcHQKKmfSfJ2u-293">
          <mxGeometry width="30" height="30" as="geometry">
            <mxRectangle width="30" height="30" as="alternateBounds" />
          </mxGeometry>
        </mxCell>
        <mxCell id="KuGaXg8JcHQKKmfSfJ2u-295" value="&lt;span style=&quot;font-weight: 400; text-align: center;&quot;&gt;hashtags_id(FK)&lt;/span&gt;" style="shape=partialRectangle;connectable=0;fillColor=none;top=0;left=0;bottom=0;right=0;align=left;spacingLeft=6;fontStyle=5;overflow=hidden;whiteSpace=wrap;html=1;" vertex="1" parent="KuGaXg8JcHQKKmfSfJ2u-293">
          <mxGeometry x="30" width="150" height="30" as="geometry">
            <mxRectangle width="150" height="30" as="alternateBounds" />
          </mxGeometry>
        </mxCell>
      </root>
    </mxGraphModel>
  </diagram>
</mxfile>
